<?xml version="1.0" encoding="utf-8"?>
<!-- Generator: Adobe Illustrator 23.0.1, SVG Export Plug-In . SVG Version: 6.00 Build 0)  -->
<svg version="1.1" id="Layer_1" xmlns="http://www.w3.org/2000/svg" xmlns:xlink="http://www.w3.org/1999/xlink" x="0px" y="0px"
	 viewBox="0 0 300 250" style="enable-background:new 0 0 300 250;" xml:space="preserve">
<style type="text/css">
	.st0{fill:#FEF6D6;}
	.st1{fill:#B23239;}
	.st2{fill:#003049;}
	.st3{fill:none;}
	.st4{font-family:'ArialRoundedMTBold';}
	.st5{font-size:100px;}
	.st6{letter-spacing:5;}
</style>
<g>
	<path class="st0" d="M149,298.5c-89.98,0-179.95-0.02-269.93,0.09c-3.27,0-4.17-0.45-4.17-4.02
		c0.12-136.96,0.12-273.93-0.01-410.89c0-3.81,1.03-4.26,4.43-4.26c179.79,0.09,359.57,0.09,539.36,0c3.42,0,4.43,0.47,4.43,4.26
		c-0.13,136.8-0.13,273.6-0.01,410.39c0,3.91-1.06,4.52-4.68,4.51C328.62,298.48,238.81,298.5,149,298.5z"/>
	<g>
		<path class="st1" d="M150.17,120.7c0-12-0.04-24,0.01-36c0.06-15.85,10.48-26.18,26.38-26.19c22.67-0.02,45.33,0.12,68-0.11
			c4.39-0.05,4.94,1.53,4.29,5.17c-2.01,11.41-12.4,19.33-26.08,19.48c-11.17,0.12-22.33-0.04-33.5,0.05
			c-6.98,0.06-11.42,3.17-13.64,8.89c-1.2,3.11-0.86,4.53,2.97,4.49c14.16-0.15,28.33,0.08,42.5-0.14c4.1-0.06,5.1,0.9,4.12,5.03
			c-2.71,11.41-11.63,19.15-23.42,19.44c-7.66,0.19-15.33,0.17-23,0c-3.05-0.07-4.12,0.89-3.97,3.97c0.22,4.82,0.15,9.67,0.04,14.5
			c-0.28,12.19-9.5,22.15-21.53,23.82c-3.88,0.54-3.14-1.85-3.15-3.89C150.15,146.36,150.17,133.53,150.17,120.7z"/>
		<path class="st2" d="M135.87,120.98c0,12.66-0.07,25.31,0.05,37.97c0.03,3.27-0.24,4.8-4.35,3.9
			c-12.46-2.74-20.22-11.86-20.34-24.7c-0.04-4-0.36-8.03,0.09-11.98c0.52-4.67-1.39-5.54-5.6-5.37
			c-7.48,0.31-14.99,0.27-22.47-0.04c-11.09-0.46-19.96-8.46-22.42-19.33c-0.86-3.81-0.36-5.19,4-5.1
			c13.98,0.27,27.97,0.11,41.96,0.09c4.85-0.01,5.23-0.62,3.32-5.06c-2.55-5.94-7.29-8.32-13.5-8.33c-11.16,0-22.31,0.08-33.47-0.02
			c-13.17-0.12-22.78-6.99-25.56-18.07c-1.55-6.18-1.38-6.42,4.84-6.42c22.48,0,44.96-0.02,67.44,0.01
			c15.45,0.02,25.94,10.5,26,26.01C135.91,96.67,135.87,108.83,135.87,120.98z"/>
		<path class="st2" d="M150.18-17.62c0-12.66,0.14-25.32-0.09-37.98c-0.07-3.76,1.21-4.43,4.61-4
			c10.49,1.34,19.74,11.62,20.14,22.85c0.16,4.49,0.4,9.03-0.07,13.48c-0.52,4.89,1.53,5.78,5.86,5.59
			c7.15-0.31,14.33-0.26,21.48,0.02c11.83,0.46,20.55,8.23,23.16,19.77c0.79,3.49,0.27,4.56-3.54,4.5
			c-14.16-0.22-28.32-0.1-42.48-0.08c-4.93,0.01-5.44,0.86-3.24,5.5c2.71,5.73,7.38,8.3,13.62,8.3c12.33,0,24.66-0.14,36.98,0.11
			c10.83,0.22,20.67,9.11,22.27,19.46c0.51,3.3,0.25,4.95-4.03,4.9c-23.15-0.25-46.31-0.08-69.47-0.13
			c-14.2-0.03-24.97-10.59-25.17-24.82C150.04,7.37,150.18-5.12,150.18-17.62z"/>
		<path class="st1" d="M135.88-17.44c0,11.83,0.02,23.65,0,35.48c-0.03,16.27-10.31,26.64-26.41,26.65
			c-22.65,0.02-45.3-0.12-67.95,0.11c-4.36,0.04-4.98-1.51-4.32-5.17c1.85-10.24,11.48-18.93,22.05-19.16
			c12.49-0.27,24.98-0.07,37.47-0.14c6.24-0.04,10.85-2.79,13.43-8.59c1.94-4.36,1.43-5.19-3.27-5.19
			C92.72,6.52,78.56,6.41,64.41,6.62c-3.76,0.05-4.42-0.99-3.65-4.52c2.43-11.2,11.25-19.21,22.71-19.7
			c7.65-0.33,15.32-0.29,22.98-0.07c3.61,0.11,5.14-0.74,4.85-4.66c-0.34-4.64-0.2-9.33-0.05-13.98c0.37-11.32,8.9-21.41,19.2-23.17
			c3.89-0.67,5.66-0.07,5.54,4.57C135.67-42.43,135.88-29.93,135.88-17.44z"/>
	</g>
	<rect y="177.5" class="st3" width="294" height="75"/>
	<text transform="matrix(1 0 0 1 14.0508 250.2998)" class="st1 st4 st5 st6">FIXIT </text>
	<rect x="4" y="261.09" class="st3" width="294" height="75"/>
	<text transform="matrix(1 0 0 1 17.0308 291.6629)" class="st2 st4" style="font-size:42px; letter-spacing:2;">SOLUTIONS </text>
	<text transform="matrix(1 0 0 1 61.4424 -52)" style="font-family:'MyriadPro-Regular'; font-size:42px; letter-spacing:2;">Lorem ipsum</text>
</g>
</svg>
